<?xml version="1.0" encoding="utf-8"?>
<!-- Generator: Adobe Illustrator 28.0.0, SVG Export Plug-In . SVG Version: 6.00 Build 0)  -->
<svg version="1.1" id="Layer_2_00000146461083277319988120000004986942169693599141_"
	 xmlns="http://www.w3.org/2000/svg" xmlns:xlink="http://www.w3.org/1999/xlink" x="0px" y="0px" viewBox="0 0 176.5 182.5"
	 style="enable-background:new 0 0 176.5 182.5;" xml:space="preserve">
<style type="text/css">
	.st0{display:none;fill:#F9DEDE;}
	.st1{fill:#FFFFFF;}
</style>
<g id="Layer_1-2">
	<rect class="st0" width="176.5" height="182.5"/>
	<g>
		<path d="M1,83.2c0.4-0.4,0.6-0.6,0.7-0.8c0.1-0.5,0.2-1,0.3-1.4c1.5-10.9,4.9-21,10.3-30.6c6.6-11.7,15.4-21.3,26.4-29
			C48.1,14.8,58.5,10.4,69.8,8c5.7-1.2,11.4-2.7,17.3-2.4c5,0.2,10,0.5,15,1.5c11.2,2.2,21.8,5.7,31.5,11.8
			c12.6,7.9,22.7,18.3,30.2,31.4c4.8,8.3,7.9,17.1,9.8,26.4c0.6,3.1,2.1,6.1,2.3,9.2c0.3,7.1,0.3,14.1-1.6,21.2
			c-2.8,10.1-5.3,20.1-10.6,29.3c-7.3,12.6-16.9,22.7-29.1,30.4c-8.6,5.4-17.9,9.4-27.9,11.4c-3.5,0.7-6.9,2-10.3,2.1
			c-7.7,0.4-15.3,0.6-22.9-1.3c-8.1-2-16.2-3.9-23.6-7.7c-12.6-6.5-23.5-15.1-31.9-26.8C9.3,132.7,3.9,119.7,2,105.2
			c-0.1-0.7-0.4-1.5-0.8-2.8C0.6,103.6,0.6,82.5,1,83.2L1,83.2z M101.1,78.1c0.8,1.2,1.3,2.7,2.3,3.3c1.1,0.7,2.8,0.5,4.1,1
			c0.9,0.3,1.9,0.9,2.3,1.7c0.5,1,1,2.9,0.5,3.4c-2,2.1-1.2,4.1-0.4,6.2c2.1,5,4.2,10,6.2,15.1c2.2,5.4,4.2,11,6.3,16.4
			c2.4,6.1,4.1,12.4,3.8,18.8c-0.2,6.3-2,12.5-3.4,18.7c-0.4,1.8-1.8,3.6-3.2,4.9c-0.7,0.7-2.3,0.6-3.5,0.9c0.2-0.9,0.3-1.8,0.6-2.7
			c1.3-4.1,3.1-8.1,3.7-12.2c0.7-4.1,0.2-8.4,0.2-12.7c0-5.6-1.1-11-3.2-16.2c-1.6-3.9-2.9-7.9-4.3-11.8c-0.6-1.6-1.1-3.2-1.7-4.9
			c-3.5,3.4-4.2,3.5-8.3,1.4c-0.4-0.2-1-0.3-1.4-0.3c-2.6,0.1-4.1-1.2-5-3.6c-0.3-0.7-1.4-1.2-2-1.6c-0.9,1.8-1.5,3.1-2.2,4.4
			c0.7,0.4,1.6,0.9,2.6,1.3c7.2,3,13.1,7.5,16.7,14.5c1.8,3.5,5.1,6.7,2.9,11.3c-0.3,0.5,0.2,1.4,0.4,2.1c0.3,1.4,0.8,2.9,0.9,4.3
			c0.4,5.7-1.1,11-3.6,16c-3.6,7.3-9.7,12.1-17.3,14.3c-7,2.1-14,1-20.4-3.5c-8.5-6-12.5-14.5-13.1-24.5c-0.3-5.6,0.7-11.3,1.1-17
			c0-0.6,0.3-1.1,0.6-1.6c4.4-8.5,11.3-13.9,20.3-16.6c0.6-0.2,1-0.5,1.3-0.7c-1.1-1-2.1-1.9-3-2.8c-0.5-0.4-0.8-1.4-1.3-1.4
			c-0.6,0-1.2,0.6-1.7,1.1c-0.8,0.7-1.3,2.1-2.1,2.3c-3,0.7-6.1,1.1-9.2,1.5c-0.6,0.1-1.3-0.6-1.9-1c-0.7-0.5-1.2-1-2-1.7
			c-0.3,0.6-0.5,1-0.7,1.5c-1.1,3.6-2.1,7.1-3.3,10.7c-1,2.9-2.2,5.7-3.1,8.6c-2.4,7.5-3,15.3-2.6,23.1c0.2,2.6,0.9,5.3,2,7.6
			c1.6,3.5,4.1,6.6,5.6,10.1c1.6,3.7,4.4,4.5,7.9,5.4c9.4,2.2,19,2.2,28.5,1.3c6.3-0.6,12.4-2.3,18.3-4.8c4.8-2.1,9.8-3.1,13.3-7.5
			c3.1-3.9,6.3-7.7,8.1-12.4c2.4-6.5,4.4-13.2,4.6-20.2c0-0.8,1.3-1.6,2-2.3c0.5,0.8,1.3,1.6,1.4,2.5c0.2,1.6,0.1,3.3,0.1,4.9
			c0.3,0,0.6,0,0.9,0c0.3-4.6,2.4-9.1,0.9-13.9c-0.6-1.8-0.8-3.7-1-5.6c-0.1-0.9,0.4-1.9,0.6-2.9c0.9,0.5,1.9,0.9,2.5,1.6
			c0.6,0.6,0.7,1.6,0.9,2.5c0.2,0.7,0.3,1.4,0.4,2.1l0.9-0.1c0-1.3,0.2-2.8,0-4.1c-0.5-2.7-1.3-5.3-1.9-7.9
			c-1.3-5.5-3.1-10.8-6.3-15.5c-0.5-0.7-0.1-2-0.1-3c0.8,0.3,1.6,0.4,2.3,0.8c0.6,0.3,0.9,0.9,1.4,1.4c4.4,5,6.4,10.9,7,17.4
			c0.4,3.4,1,6.7,1.2,10.1c0.3,4.9,0.9,9.8-3.3,13.7c-0.6,0.6-0.7,1.6-1,2.5c-0.5,1.5-0.9,3-1.4,4.5c-1.2,3.9-2.5,7.8-3.8,11.9
			c0.5-0.3,0.8-0.5,1.1-0.8c5.6-4.9,9.6-11.2,13.1-17.7c4.9-9.3,8.4-19.3,9.2-29.9c0.8-10.2,0.8-20.3-7.8-28.1
			c-0.4-0.4-0.8-1.3-0.6-1.7c0.2-0.4,1.1-0.9,1.6-0.8c1.5,0.3,3,0.8,5,1.4c-1.8-2.9-0.4-7.3-5.2-8.2c-0.7-0.1-1.3-1-1.8-1.7
			c-2.2-2.6-7.6-3.7-10.5-2.1c2,1.3,4.1,2.4,5.7,3.9c1.6,1.6,2.8,3.6,3.9,5.5c0.2,0.4-0.2,1.6-0.6,1.8c-0.4,0.3-1.6,0-1.9-0.3
			c-2.8-4.4-7.8-5.4-11.8-7.9c-1.6-1-3-0.7-4.4,0.7c-1.4,1.4-2.9,3-4.6,3.6c-3.8,1.4-7.7,2.7-11.6,3.2c-3.9,0.4-7.7-2.6-11.9-0.9
			c-0.4,0.2-1.1-0.2-1.7-0.4c-5.2-2.2-9.3-5.6-12.3-10.4c-1-1.6-2.2-3.1-3.6-4.9c-1,4.1,0.6,8,3.4,10.1c0.8,0.6,1.5,1.8,1.5,2.8
			c0,1.3-0.7,2.6-1.1,4.3c1-0.2,1.9-0.2,2.6-0.6c1.8-1.1,3.4-1.1,5.1,0c0.8,0.5,1.4,1.3,2.1,2c-0.9,0.6-1.8,1.7-2.7,1.9
			C104.4,75.7,102.3,76,101.1,78.1L101.1,78.1z M27.3,149c0.2-0.1,0.5-0.3,0.7-0.4c0-0.3,0-0.6-0.1-0.9c-1.9-5.4-4.1-10.6-5.6-16.1
			c-1.2-4.3-1.7-8.8-2.2-13.2c-0.2-1.8,0.4-3.7,0.9-5.6c0.1-0.4,1-0.9,1.5-0.9c0.3,0,0.8,0.8,0.9,1.2c0.1,0.7-0.1,1.5,0,2.2
			c0.6,5.2,1.3,10.3,2,15.5c0.2,0,0.5,0,0.8-0.1c0.1-0.7,0-1.5,0.4-2.1c0.4-0.8,1.1-1.4,1.7-2.1c0.7,0.7,1.9,1.2,2.1,2.1
			c0.9,2.8,1.5,5.6,2,8.4c1.3,6.7,4.2,12.7,8.2,18.2c2.5,3.4,5,6.8,8,9.7c1.7,1.7,4.2,2.9,7.1,3.1c-1.5-2.8-2.9-5.3-4.1-7.8
			c-2.8-5.8-4.4-11.9-4.1-18.4c0.4-7.3,3.2-13.8,6-20.3c2.2-5.2,4.2-10.4,6.3-15.6c0.7-1.7,2-3.2,2.6-5c1.8-4.5,5.4-8.1,5.9-13.3
			c0.3-3.7,4.2-6.5,7.5-5.3c1.2,0.4,2.7,2.3,2.7,3.6c0,1.9-1.7,1-2.8,0.6c-1.4-0.6-1.8,0.3-2.3,1.5c-1.2,2.9-2.4,5.8-3.8,8.5
			c-1.5,2.8-1,5.5,0.4,8.5c1.3-6.1,6-6.9,11-7.2c-0.4-0.9-0.5-1.4-0.8-1.9c-0.8-1.3-2-2.8-0.7-4.3c1.3-1.3,2.7-0.1,4,0.6
			c5.1,2.8,9.6,0.3,9.8-5.5c0-0.5,0-1,0.2-1.5c0.6-1.6,2.6-2.1,3.5-0.7c2.3,3.4,2.8,7.1,1.5,10.9c-0.3,0.8-0.9,1.6-1.7,3
			c6.1-1.2,8.1,2.3,9.7,6.8c0.8-1.7,1.8-3.5,1.5-5c-0.9-4.1-2.4-8.1-3.6-12.2c-0.1,0-0.3,0.1-0.6,0.2c-1.1,0.3-2.2,0.7-3.2,1
			c0.1-1.2,0.1-2.3,0.2-3.5c0.1-0.7,0.5-1.6,0.2-2.1c-0.8-1.8-4.3-3-6.2-2.1c-1.6,0.8-2.7,0.3-3.5-1.1c-0.4-0.7-0.5-1.5-0.8-2.4
			c-0.6,0.4-1,0.7-1.4,0.9c-4.2,2.7-8.9,1.4-11.8-2.7c-1.6-2.2-1.2-4.5-1.3-6.9c-0.2-2.6,0.6-4.6,2.5-5.5c2.9-1.5,2.2-3.4,1.1-6
			c-0.8,0.6-1.2,1.5-1.8,2.2c-4,4.2-7.3,9.3-13.6,10.8c-1.9,0.4-3.2,0.4-4.4-1.1c-0.3-0.3-1.2-0.7-1.4-0.5c-2.5,1.7-5.2,1-8,0.8
			c-5-0.5-9.7-1.6-13.4-5.5c-1.8-1.9-3.7-1.7-5.5,0.1c-2.4,2.3-5,2.6-7.3,0.6c-2-1.8-2.1-5-0.1-7.4c1.2-1.4,2.5-2.7,4.2-4.5
			c-4.9-0.4-6.1-3.9-7.5-7.8c-1.5,2.4-2.8,4.4-4.3,6.8C18,52.3,19,52,20,52.1c0.7,0.1,1.5,0.7,1.8,1.2c0.2,0.3-0.4,1.4-0.9,1.7
			c-1.2,0.7-2.6,1.2-3.8,1.8c-1.7,0.9-3.7,1.7-4.3,4.5c0.8-0.5,1.2-0.8,1.6-0.8c1.2-0.2,2.4-0.2,3.6-0.4c-0.4,1-0.6,2.4-1.4,3.1
			c-5.3,4.7-9.1,10.2-10,17.4c-0.4,2.9-0.5,5.8-0.7,8.7c1.2-2.5,1.7-5.3,3-7.5c2.8-4.5,6-8.7,9.3-12.8c0.5-0.7,2.1-0.5,3.3-0.7
			c-0.2,1.1,0,2.4-0.6,3.2c-1.9,2.9-4.2,5.6-5.9,8.6c-3.6,6.7-5.5,14-5.4,21.7c0,2,0.1,4.2-1.9,5.6c-0.3,0.2-0.4,0.8-0.4,1.1
			c0.2,1.7,0.3,3.5,0.9,5.1c2.7,8.1,5.3,16.2,10.3,23.3C21.4,141,24.4,145,27.3,149L27.3,149z M51.3,66.3c10-0.1,16.7-6.9,16.8-16.3
			c0.1-10.2-6.9-17.9-16.6-17.4C41.1,33.1,35.3,39,35,50.2C34.7,59.5,43.7,66.9,51.3,66.3z M109.2,50.4c-1.2,9.4,7.3,17,15.8,16.8
			c9.8-0.2,16.7-5.7,16.7-15.7c-0.1-11.2-5.8-16.9-16.8-17.3C116.2,33.9,108.4,42.1,109.2,50.4z M50,20.6c4.4,0,8.3,1.3,12.1,3.3
			c0.6,0.3,2.1-0.1,2.5-0.6c1.7-2.3,3.8-2.7,6.4-2.3c4.3,0.6,8.7,1.1,13.1,1.7c2.1,0.3,3.4-0.2,3.3-2.7c0-0.6,0.3-1.3,0.6-1.8
			c0.9-1.6,1.9-3.3,2.9-4.8c0.4-0.5,1.6-1.1,1.7-1c2.4,2.5,4.3-0.4,6.4-0.5C81.8,9.6,65.3,11.9,50,20.6z M69,128.2
			c1.9-1.2,3.4-1.9,4.6-2.9c2.5-2.1,5.3-3.1,8.5-3.5c2.3-0.3,4.3-0.9,6.3,0.7c0.1,0.1,0.5,0.1,0.7-0.1c1.8-1.2,3.7,0.2,5.2,0
			c2.8-0.3,4.8,0.3,7,1.8c1.2,0.8,2.6,1.2,3.9,1.8c0.8,0.3,1.6,0.4,2.4,0.6c-0.1-0.7,0-1.6-0.4-2.1c-3.9-5-9.3-7.4-15.3-8.4
			c-6-1-11.7,0.7-16.9,3.5C71.9,121.2,69.5,123.5,69,128.2L69,128.2z M95.1,71.2c0.8-0.5,1.4-0.8,1.8-1.3c0.5-0.8,1.3-2.2,1-2.5
			c-0.8-0.8-2.1-1.7-3-1.6c-1.3,0.2-2.4,1.3-3.6,1.9c-0.7,0.3-1.6,0.8-2.2,0.6c-1.8-0.5-3.6-1.3-5.3-2.1c-3.2-1.6-3.8-1.5-6.1,2
			c2.3,1.5,4.6,2.9,6.9,4.5c-0.8,0.9-1.7,1.4-1.8,2.1c-0.1,0.8,0.3,1.8,0.6,2.7c1.6-0.5,3.6-0.5,4.6-1.5c1.2-1.2,2.1-1.3,3.4-0.6
			c1.2,0.7,2.4,1.5,3.8,1.9c0.9,0.2,2.1-0.3,3.1-0.4c-0.2-1.1-0.3-2.3-0.8-3.3C97,72.7,96,72.1,95.1,71.2L95.1,71.2z M124.7,20.4
			c0.1-0.1,0.2-0.3,0.2-0.4c-0.5-0.5-0.9-1.2-1.5-1.4c-6.1-2-12.2-4-18.3-6c-1.4-0.5-2.3,0.1-3.2,1.4c-2.3,3.3-4.3,7.2-9.3,7.2
			c-0.2,0-0.4,0.4-1.1,1.2c2.4,0,4.2,0.1,6,0c4.9-0.5,9.8-1.1,14.8-1.7c1-0.1,1.9-0.5,2.9-0.6c2.6-0.1,5.2-0.2,7.8-0.2
			C123.5,20,124.1,20.3,124.7,20.4L124.7,20.4z M155.4,46.1c-0.1-0.2-0.3-1-0.8-1.5c-4.7-5-9.4-10.1-14.1-15
			c-1.1-1.1-2.4-2.1-3.9-2.6c-3.9-1.2-10.1,0-14.2,2.5c1.2-0.1,2-0.1,2.8-0.2c5.9-1,11.4-0.1,16,4.1c0.6,0.5,1.1,1.2,1.3,2
			c0.6,1.8,1,3.7,1.6,5.6c0.5,1.8,1.1,3.6,1.7,5.4c0.4,1,0.8,2.8,1.3,2.8c1.6,0.1,3.3-0.2,4.8-0.7C153,48,154,47.1,155.4,46.1
			L155.4,46.1z M99.4,165.8c-1.9-2.2-3.6-1.9-5.5-0.4c-0.5,0.4-1.6-0.2-2.5-0.2c-1.2,0-2.5,0-3.7,0.1c-0.8,0-1.9,0.4-2.4-0.1
			c-1.4-1.2-2.7-1.4-4.3-0.7c-0.3,0.2-0.9,0.3-1.2,0.1c-2.4-1.3-4.7-2.8-7.1-4.1c-0.6-0.4-1.4-0.4-2.1-0.6c0.2,0.7,0.1,1.7,0.6,2.1
			c4.7,3.9,9.2,7.8,15.9,8.4c6,0.6,10.6-1.8,15.2-4.9c1-0.7,1.6-2.1,2.6-2.5c2.4-0.8,2.3-3.1,3.2-4.9c-1.5,0.6-2.7,1.6-3.8,2.6
			c-0.5,0.5-1.1,1.6-1.5,1.5C100.5,161.9,100.2,163.6,99.4,165.8L99.4,165.8z M22.2,44.1c1.5,1.2,2.5,2.1,3.5,3
			c0.6,0.5,1.1,1.1,1.7,1.5c2.1,1.4,3.3,0.9,3.8-1.6c0.5-2.5,1-5,1.9-7.4c0.7-1.9,2.6-3.4,3-5.4c0.6-2.7,2.5-3.6,4.6-4.2
			c1.6-0.5,3.3-0.4,4.9-0.8c1.1-0.2,2.2-0.7,3.3-1.1l-0.3-0.8c-5.5,1.1-11.5,0.4-16,4.8C28.8,36,24.7,39.7,22.2,44.1L22.2,44.1z
			 M70.6,39.7c1.6,1.9,2.9,3.6,4.4,5.1c0.7,0.8,1.8,1.2,2.7,1.8c0.3-1,0.7-2.1,1-3.2c0.1-0.3,0.1-0.8,0-1c-1.2-1.6-2.4-3.2-3.8-4.7
			c-0.2-0.2-1.6,0.9-2.4,1.3C71.9,39.3,71.4,39.4,70.6,39.7L70.6,39.7z M105,36.8c-0.2-0.1-0.5-0.2-0.7-0.3
			c-5.8,3.5-7.1,6.2-4.2,10.2C101.8,43.3,103.4,40.1,105,36.8L105,36.8z M82.9,100.8c0.5,0.8,1,2.2,1.6,2.3c2.3,0.3,4.8,0.2,7.1,0.1
			c0.4,0,0.8-0.8,1.2-1.3c-0.4-0.4-0.9-1.1-1.3-1.1C88.8,100.7,86.2,100.8,82.9,100.8L82.9,100.8z M34.1,155.8l0.7-0.6
			c-0.3-4.5-2.9-6.9-6.2-5.4C30.5,151.9,32.3,153.8,34.1,155.8L34.1,155.8z M146.5,55.5c0,0.1,0,0.2,0,0.3h10.3
			c-1.4-0.9-2.4-2.1-3.3-2C151.1,54.1,148.8,54.9,146.5,55.5z M30.1,61.8c0-0.3,0-0.6,0-0.9c-0.8-0.5-1.6-1.4-2.4-1.4
			c-0.7,0-1.7,1.1-1.8,1.8c-0.1,0.6,1,1.8,1.7,1.8C28.5,63.1,29.3,62.2,30.1,61.8z M72.4,51.2c-0.1,1.7-0.2,2.9-0.3,4.2
			c0.3,0,0.6,0,0.9,0C73.9,54.2,75,53,72.4,51.2L72.4,51.2z"/>
		<path class="st1" d="M101.1,78.2c1.2-2.1,3.3-2.4,5.5-2.8c1-0.2,1.8-1.2,2.7-1.9c-0.7-0.7-1.3-1.5-2.1-2c-1.7-1.1-3.3-1.1-5.1,0
			c-0.7,0.4-1.6,0.4-2.6,0.6c0.5-1.7,1.2-3,1.1-4.3c0-1-0.7-2.2-1.5-2.8c-2.8-2.1-4.4-6-3.4-10.1c1.4,1.8,2.6,3.3,3.6,4.9
			c3,4.8,7.1,8.2,12.3,10.4c0.5,0.2,1.2,0.6,1.7,0.4c4.2-1.8,8,1.3,11.9,0.9c4-0.4,7.8-1.8,11.6-3.2c1.8-0.7,3.3-2.2,4.6-3.6
			c1.4-1.5,2.9-1.7,4.4-0.7c4,2.5,9.1,3.4,11.8,7.9c0.2,0.4,1.4,0.6,1.9,0.3s0.9-1.4,0.6-1.8c-1.2-1.9-2.3-4-3.9-5.5
			c-1.6-1.6-3.8-2.6-5.7-3.9c2.9-1.6,8.2-0.5,10.5,2.1c0.5,0.6,1.1,1.5,1.8,1.6c4.7,0.9,3.4,5.3,5.2,8.2c-2-0.6-3.5-1.1-5-1.4
			c-0.5-0.1-1.4,0.4-1.6,0.8c-0.2,0.4,0.2,1.3,0.6,1.7c8.5,7.7,8.6,17.8,7.8,28.1c-0.8,10.7-4.2,20.6-9.2,29.9
			c-3.4,6.5-7.4,12.7-13.1,17.7c-0.3,0.2-0.6,0.4-1.1,0.8c1.3-4.2,2.6-8,3.8-11.9c0.5-1.5,0.9-3,1.4-4.5c0.3-0.9,0.4-1.9,1-2.5
			c4.2-3.8,3.7-8.8,3.3-13.7c-0.2-3.4-0.9-6.7-1.2-10.1c-0.7-6.5-2.6-12.4-7-17.4c-0.4-0.5-0.8-1.1-1.4-1.4
			c-0.7-0.4-1.6-0.6-2.3-0.8c0,1-0.4,2.3,0.1,3c3.2,4.8,5,10,6.3,15.5c0.6,2.7,1.4,5.3,1.9,7.9c0.2,1.3,0,2.7,0,4.1l-0.9,0.1
			c-0.1-0.7-0.2-1.4-0.4-2.1c-0.2-0.8-0.4-1.8-0.9-2.5c-0.6-0.7-1.7-1.1-2.5-1.6c-0.2,1-0.7,2-0.6,2.9c0.2,1.9,0.4,3.8,1,5.6
			c1.5,4.8-0.6,9.3-0.9,13.9c-0.3,0-0.6,0-0.9,0c0-1.6,0.2-3.3-0.1-4.9c-0.1-0.9-0.9-1.7-1.4-2.5c-0.7,0.8-2,1.5-2,2.3
			c-0.2,7.1-2.2,13.7-4.6,20.2c-1.8,4.7-4.9,8.5-8.1,12.4c-3.5,4.3-8.5,5.4-13.3,7.5c-5.9,2.6-12.1,4.2-18.3,4.8
			c-9.5,0.9-19,0.9-28.5-1.3c-3.5-0.8-6.3-1.7-7.9-5.4c-1.5-3.5-4-6.6-5.6-10.1c-1.1-2.3-1.8-5-2-7.6c-0.5-7.8,0.2-15.6,2.6-23.1
			c0.9-2.9,2.2-5.7,3.1-8.6c1.2-3.5,2.2-7.1,3.3-10.7c0.1-0.4,0.4-0.9,0.7-1.5c0.8,0.7,1.3,1.2,2,1.7c0.6,0.4,1.3,1.1,1.9,1
			c3.1-0.4,6.2-0.8,9.2-1.5c0.8-0.2,1.3-1.6,2.1-2.3c0.5-0.5,1.1-1.1,1.7-1.1c0.4,0,0.8,0.9,1.3,1.4c0.9,0.9,1.9,1.8,3,2.8
			c-0.3,0.2-0.8,0.5-1.3,0.7c-9.1,2.7-16,8.2-20.3,16.6c-0.3,0.5-0.5,1.1-0.6,1.6c-0.5,5.7-1.5,11.4-1.1,17
			c0.6,10,4.6,18.4,13.1,24.5c6.3,4.5,13.3,5.5,20.4,3.5c7.5-2.2,13.7-7,17.3-14.3c2.5-5,4-10.4,3.6-16c-0.1-1.4-0.6-2.9-0.9-4.3
			c-0.2-0.7-0.7-1.6-0.4-2.1c2.3-4.6-1-7.8-2.9-11.3c-3.7-6.9-9.6-11.5-16.7-14.5c-1-0.4-1.9-1-2.6-1.3c0.7-1.3,1.2-2.5,2.2-4.4
			c0.6,0.4,1.7,0.9,2,1.6c0.9,2.4,2.4,3.7,5,3.6c0.5,0,1,0.1,1.4,0.3c4.2,2.1,4.8,2,8.3-1.4c0.6,1.7,1.1,3.3,1.7,4.9
			c1.4,4,2.7,8,4.3,11.8c2.1,5.2,3.1,10.6,3.2,16.2c0,4.2,0.5,8.6-0.2,12.7c-0.7,4.2-2.5,8.2-3.7,12.2c-0.3,0.9-0.4,1.8-0.6,2.7
			c1.2-0.3,2.8-0.1,3.5-0.9c1.3-1.4,2.7-3.1,3.2-4.9c1.4-6.2,3.2-12.4,3.4-18.7c0.2-6.4-1.4-12.8-3.8-18.8c-2.2-5.5-4.2-11-6.3-16.4
			c-2-5.1-4.2-10-6.2-15.1c-0.8-2.1-1.7-4.1,0.4-6.2c0.5-0.5,0-2.4-0.5-3.4c-0.4-0.8-1.4-1.4-2.3-1.7c-1.3-0.5-2.9-0.3-4.1-1
			C102.4,80.9,101.9,79.4,101.1,78.2L101.1,78.2z"/>
		<path class="st1" d="M27.3,149c-2.9-4-5.9-8-8.8-12.1c-5-7.1-7.6-15.2-10.3-23.3c-0.6-1.6-0.7-3.4-0.9-5.1
			c-0.1-0.4,0.1-0.9,0.4-1.1c2-1.4,1.9-3.6,1.9-5.6C9.5,94,11.4,86.8,15,80.1c1.6-3,4-5.7,5.9-8.6c0.5-0.9,0.4-2.1,0.6-3.2
			c-1.1,0.2-2.7,0.1-3.3,0.7c-3.3,4.1-6.5,8.3-9.3,12.8c-1.4,2.2-1.8,5-3,7.5c0.2-2.9,0.4-5.8,0.7-8.7c0.9-7.2,4.7-12.7,10-17.4
			c0.8-0.7,0.9-2,1.4-3.1c-1.2,0.1-2.4,0.2-3.6,0.4c-0.4,0.1-0.8,0.4-1.6,0.8c0.6-2.8,2.6-3.5,4.3-4.5c1.2-0.7,2.6-1.1,3.8-1.8
			c0.5-0.3,1.1-1.4,0.9-1.7c-0.3-0.6-1.1-1.2-1.8-1.2c-1-0.1-2,0.2-3.6,0.5c1.6-2.5,2.8-4.5,4.3-6.8c1.4,4,2.6,7.5,7.5,7.8
			c-1.7,1.8-3,3.1-4.2,4.5c-2,2.4-1.9,5.6,0.1,7.4c2.3,2,5,1.8,7.3-0.6c1.8-1.8,3.8-2,5.5-0.1c3.7,3.8,8.3,5,13.4,5.5
			c2.7,0.2,5.4,0.9,8-0.8c0.2-0.2,1.1,0.2,1.4,0.5c1.2,1.5,2.5,1.6,4.4,1.1c6.3-1.5,9.6-6.6,13.6-10.8c0.7-0.7,1-1.6,1.8-2.2
			c1.1,2.6,1.8,4.5-1.1,5.9c-1.9,0.9-2.7,2.9-2.5,5.5c0.2,2.4-0.2,4.7,1.3,6.9c2.9,4.1,7.6,5.3,11.8,2.7c0.4-0.3,0.8-0.6,1.4-0.9
			c0.3,0.9,0.4,1.7,0.8,2.4c0.8,1.4,1.9,1.9,3.5,1.1c1.9-0.9,5.4,0.3,6.2,2.1c0.2,0.6-0.2,1.4-0.2,2.1c-0.1,1.2-0.1,2.3-0.2,3.5
			c1.1-0.3,2.2-0.7,3.2-1c0.2-0.1,0.5-0.1,0.6-0.2c1.2,4.1,2.7,8.1,3.6,12.2c0.3,1.5-0.7,3.3-1.5,5c-1.6-4.5-3.6-8-9.7-6.8
			c0.8-1.4,1.4-2.2,1.7-3c1.2-3.9,0.8-7.6-1.5-10.9c-0.9-1.3-3-0.9-3.5,0.7c-0.2,0.5-0.1,1-0.2,1.5c-0.2,5.7-4.7,8.3-9.8,5.5
			c-1.3-0.7-2.7-2-4-0.6c-1.4,1.4-0.2,2.9,0.7,4.3c0.3,0.5,0.5,1,0.8,1.9c-5,0.3-9.7,1-11,7.2c-1.4-3.1-2-5.7-0.4-8.5
			c1.5-2.7,2.7-5.6,3.8-8.5c0.5-1.2,0.8-2,2.3-1.5c1.1,0.4,2.8,1.3,2.8-0.6c0-1.2-1.4-3.1-2.7-3.6c-3.3-1.2-7.1,1.6-7.5,5.3
			c-0.4,5.1-4.1,8.8-5.9,13.3c-0.7,1.7-1.9,3.2-2.6,5c-2.2,5.2-4.2,10.4-6.3,15.6c-2.8,6.6-5.7,13-6,20.4
			c-0.3,6.6,1.3,12.6,4.1,18.4c1.2,2.5,2.6,4.9,4.1,7.8c-2.9-0.2-5.3-1.4-7.1-3.1c-3-2.9-5.6-6.3-8-9.7c-4-5.5-6.8-11.5-8.2-18.2
			c-0.6-2.8-1.2-5.7-2-8.4c-0.2-0.8-1.4-1.4-2.1-2.1c-0.6,0.7-1.3,1.3-1.7,2.1c-0.3,0.6-0.2,1.4-0.4,2.1c-0.2,0-0.5,0-0.8,0.1
			c-0.7-5.2-1.4-10.3-2-15.5c-0.1-0.7,0.1-1.5,0-2.2c-0.1-0.5-0.6-1.2-0.9-1.2c-0.5,0-1.4,0.5-1.5,0.9c-0.4,1.8-1.1,3.8-0.9,5.6
			c0.5,4.4,1,8.9,2.2,13.2c1.5,5.4,3.7,10.7,5.6,16.1c0.1,0.3,0,0.6,0.1,0.9C27.7,148.7,27.5,148.9,27.3,149L27.3,149z"/>
		<path class="st1" d="M51.3,66.3c-7.6,0.5-16.6-6.8-16.3-16.1c0.3-11.2,6.1-17.1,16.5-17.6c9.7-0.5,16.7,7.3,16.6,17.4
			C68,59.5,61.3,66.3,51.3,66.3z"/>
		<path class="st1" d="M109.2,50.4c-0.8-8.3,7-16.4,15.7-16.1c11,0.4,16.7,6.1,16.8,17.3c0.1,10-6.9,15.5-16.7,15.7
			C116.5,67.3,108.1,59.8,109.2,50.4z"/>
		<path class="st1" d="M50,20.6c15.3-8.7,31.7-11,48.9-8.8c-2.1,0.1-4,3-6.4,0.5c-0.1-0.1-1.3,0.5-1.7,1c-1.1,1.5-2,3.2-2.9,4.8
			c-0.3,0.6-0.7,1.2-0.6,1.8c0.2,2.5-1.2,3-3.3,2.7c-4.3-0.6-8.7-1.1-13.1-1.7c-2.6-0.4-4.7,0-6.4,2.3c-0.4,0.5-1.9,0.9-2.5,0.6
			C58.4,22,54.4,20.6,50,20.6z M86.8,17.1c-0.1-0.4,0-1.6-0.6-2.5c-0.4-0.7-1.8-1.6-2.2-1.4c-1.6,0.8-2.7,0.2-4-0.6
			c-0.7-0.4-2-0.3-2.7,0c-0.4,0.2-0.5,1.9-0.1,2.4c1.7,2.2,2.7,5.1,6.3,5.3C86.5,20.4,86.8,20.6,86.8,17.1L86.8,17.1z"/>
		<path class="st1" d="M69,128.2c0.4-4.7,2.9-7,6-8.7c5.3-2.9,10.9-4.5,16.9-3.5c6,1,11.4,3.4,15.3,8.4c0.4,0.5,0.3,1.4,0.4,2.1
			c-0.8-0.2-1.7-0.3-2.4-0.6c-1.3-0.5-2.7-1-3.9-1.8c-2.2-1.4-4.2-2.1-7-1.8c-1.5,0.2-3.3-1.2-5.2,0c-0.2,0.1-0.6,0.2-0.7,0.1
			c-2-1.6-4.1-1-6.3-0.7c-3.2,0.4-6,1.4-8.5,3.5C72.4,126.2,71,126.9,69,128.2L69,128.2z"/>
		<path class="st1" d="M95.1,71.2c0.9,0.9,1.9,1.6,2.4,2.5c0.5,1,0.6,2.2,0.8,3.3c-1.1,0.2-2.2,0.7-3.1,0.4
			c-1.3-0.3-2.5-1.2-3.8-1.9c-1.3-0.7-2.2-0.7-3.4,0.6c-1,1-3,1-4.6,1.5c-0.2-0.9-0.7-1.9-0.6-2.7c0.1-0.7,1-1.2,1.8-2.1
			c-2.4-1.5-4.7-3-6.9-4.5c2.4-3.5,2.9-3.6,6.1-2c1.7,0.9,3.4,1.6,5.3,2.1c0.6,0.2,1.5-0.3,2.2-0.6c1.2-0.6,2.3-1.8,3.6-1.9
			c1-0.1,2.2,0.8,3,1.6c0.2,0.3-0.5,1.7-1,2.5C96.6,70.4,95.9,70.7,95.1,71.2L95.1,71.2z"/>
		<path class="st1" d="M124.7,20.4c-0.6-0.1-1.2-0.4-1.8-0.4c-2.6,0-5.2,0-7.8,0.2c-1,0-1.9,0.5-2.9,0.6c-4.9,0.6-9.8,1.2-14.8,1.7
			c-1.8,0.2-3.6,0-6,0c0.7-0.8,0.9-1.2,1.1-1.2c5,0,7-3.8,9.3-7.2c0.9-1.4,1.8-1.9,3.2-1.4c6.1,1.9,12.2,3.9,18.3,6
			c0.6,0.2,1,0.9,1.5,1.4C124.8,20.2,124.8,20.3,124.7,20.4L124.7,20.4z"/>
		<path class="st1" d="M155.4,46.1c-1.4,1-2.3,1.9-3.5,2.3c-1.5,0.5-3.2,0.9-4.8,0.7c-0.5,0-0.9-1.8-1.3-2.8
			c-0.6-1.8-1.2-3.6-1.7-5.4c-0.6-1.8-1-3.7-1.6-5.6c-0.2-0.7-0.8-1.4-1.3-2c-4.6-4.1-10.1-5-16-4.1c-0.8,0.1-1.6,0.1-2.8,0.2
			c4.2-2.5,10.3-3.7,14.2-2.5c1.4,0.4,2.8,1.5,3.9,2.6c4.8,4.9,9.5,10,14.1,15C155.1,45.2,155.3,46,155.4,46.1L155.4,46.1z"/>
		<path class="st1" d="M99.4,165.8c0.7-2.1,1.1-3.9,3.4-3.5c0.4,0.1,0.9-1,1.5-1.5c1.1-1,2.3-2,3.8-2.6c-0.9,1.8-0.7,4.1-3.2,4.9
			c-1,0.3-1.6,1.8-2.6,2.5c-4.6,3-9.3,5.4-15.2,4.9c-6.6-0.6-11.2-4.5-15.9-8.4c-0.5-0.4-0.4-1.4-0.6-2.1c0.7,0.2,1.5,0.3,2.1,0.6
			c2.4,1.3,4.7,2.8,7.1,4.1c0.3,0.2,0.8,0,1.2-0.1c1.6-0.8,2.9-0.5,4.3,0.7c0.5,0.4,1.6,0.1,2.4,0.1c1.2,0,2.5-0.1,3.7-0.1
			c0.8,0,2,0.6,2.5,0.2C95.8,163.9,97.5,163.6,99.4,165.8L99.4,165.8z"/>
		<path class="st1" d="M22.2,44.1c2.5-4.4,6.6-8.2,10.5-12c4.5-4.4,10.5-3.7,16-4.8l0.3,0.8c-1.1,0.4-2.2,0.9-3.3,1.1
			c-1.6,0.3-3.3,0.3-4.9,0.8c-2.2,0.6-4,1.5-4.6,4.2c-0.5,1.9-2.3,3.5-3,5.4c-0.9,2.4-1.4,4.9-1.9,7.4c-0.5,2.5-1.7,3-3.8,1.6
			c-0.6-0.4-1.1-1-1.7-1.5C24.7,46.2,23.7,45.4,22.2,44.1L22.2,44.1z"/>
		<path class="st1" d="M70.6,39.7c0.8-0.3,1.4-0.4,1.9-0.6c0.9-0.4,2.2-1.5,2.4-1.3c1.4,1.4,2.6,3,3.8,4.7c0.2,0.2,0.1,0.7,0,1
			c-0.3,1.1-0.7,2.1-1,3.2c-0.9-0.6-1.9-1-2.7-1.8C73.5,43.3,72.2,41.6,70.6,39.7L70.6,39.7z"/>
		<path class="st1" d="M105,36.8c-1.6,3.2-3.2,6.4-4.9,9.9c-2.9-4-1.6-6.7,4.2-10.2C104.5,36.6,104.7,36.7,105,36.8L105,36.8z"/>
		<path class="st1" d="M82.9,100.8c3.3,0,5.9-0.1,8.5,0.1c0.4,0,0.9,0.7,1.3,1.1c-0.4,0.4-0.8,1.2-1.2,1.3c-2.4,0.1-4.8,0.2-7.1-0.1
			C83.8,103,83.4,101.6,82.9,100.8L82.9,100.8z"/>
		<path class="st1" d="M34.1,155.8c-1.8-1.9-3.6-3.9-5.5-5.9c3.3-1.6,5.9,0.8,6.2,5.4L34.1,155.8L34.1,155.8z"/>
		<path class="st1" d="M146.5,55.5c2.3-0.6,4.6-1.4,7-1.7c0.9-0.1,1.9,1.1,3.3,2h-10.3C146.5,55.7,146.5,55.6,146.5,55.5z"/>
		<path class="st1" d="M30.1,61.8c-0.8,0.5-1.7,1.3-2.5,1.3c-0.6,0-1.7-1.2-1.7-1.8c0.1-0.7,1.1-1.8,1.8-1.8c0.8,0,1.6,0.9,2.4,1.4
			C30.2,61.1,30.1,61.5,30.1,61.8z"/>
		<path class="st1" d="M72.4,51.2c2.6,1.9,1.5,3,0.6,4.2c-0.3,0-0.6,0-0.9,0C72.1,54.1,72.2,52.9,72.4,51.2L72.4,51.2z"/>
		<path d="M86.8,17c0,3.6-0.3,3.4-3.3,3.2c-3.7-0.2-4.7-3.1-6.3-5.3c-0.4-0.5-0.3-2.2,0.1-2.4c0.7-0.4,2-0.5,2.7,0
			c1.3,0.8,2.4,1.4,4,0.6c0.5-0.2,1.8,0.7,2.2,1.4C86.8,15.5,86.7,16.7,86.8,17L86.8,17z"/>
		<g>
			<path class="st1" d="M62.1,23.3c2.6,4.1,5.2,8.3,7.8,12.4c2.2,3.5,4.5,7.1,7.7,9.8c2.2,1.8,4.9,3.2,6.4,5.7
				c0.2,0.4,0.5,0.8,0.9,0.9c0.4,0.1,0.9-0.2,1.2-0.4c11.2-7.8,20.1-19.6,33.1-23.8c1.1-0.4,2.3-0.7,3.1-1.5
				c1.9-1.9,0.8-5.5-1.5-6.9s-5.2-1.4-7.9-1.2c-4.3,0.2-8.7,0.4-12.8,1.6c-2.8,0.8-5.4,2-8.2,2.9c-5.7,1.8-11.7,2.2-17.6,2.4
				c-4.4,0.2-9.2,0.1-12.7-2.6"/>
			<path class="st1" d="M60,24.5c3.2,5,6.3,10.2,9.5,15.1c1.5,2.3,3.1,4.5,5.1,6.4c1.8,1.8,4.1,3,5.9,4.8c0.9,0.8,1.4,1.8,2.1,2.6
				c1.1,1.2,2.8,1.4,4.2,0.7c2.2-1.1,4.2-3,6-4.5c3.7-3.1,7.3-6.4,10.9-9.5c3.6-3,7.4-5.9,11.6-8c2.1-1.1,4.4-1.7,6.6-2.6
				c2.4-1,4-3.2,3.9-5.9c-0.1-2.4-1.3-4.6-3.2-6c-2.2-1.6-5-2-7.7-2c-5.6,0-11.5,0.4-16.8,2.2c-3.1,1-6,2.4-9.1,3.2
				s-6.3,1.2-9.5,1.4s-6.2,0.4-9.2,0.3c-2.7-0.1-5.2-0.6-7.3-2.2c-1.1-0.8-2.8-0.2-3.4,0.9c-0.7,1.3-0.2,2.6,0.9,3.4
				c3,2.2,6.8,2.9,10.5,2.9c3.9,0.1,8-0.1,11.9-0.6c4.3-0.5,8.4-1.4,12.4-2.9c3.8-1.4,7.4-2.7,11.5-3.1c2.1-0.2,4.2-0.3,6.2-0.4
				c1.7-0.1,3.4-0.2,5.1,0.2c1.2,0.3,2.2,0.9,2.7,2c0.4,1,0.3,1.6-0.7,2c-1.6,0.7-3.3,1.1-4.9,1.8s-3.1,1.5-4.6,2.3
				c-3,1.8-5.8,3.9-8.5,6c-3,2.4-5.8,5-8.7,7.6c-1.5,1.3-2.9,2.6-4.5,3.8c-0.7,0.6-1.4,1.1-2.1,1.7c-0.4,0.3-0.8,0.6-1.2,0.9
				c-0.2,0.1-0.3,0.2-0.5,0.3c-0.1,0.1-0.2,0.1-0.3,0.2c-0.2,0.1-0.2,0.1,0.2,0l1.3,0.3c0.2,0.3,0.2,0.3,0.1,0.1
				c-0.1-0.2-0.2-0.3-0.3-0.5c-0.2-0.3-0.4-0.5-0.6-0.8c-0.4-0.6-0.9-1.1-1.4-1.5c-1.1-1-2.3-1.8-3.4-2.7c-2.2-1.6-4.1-3.7-5.6-5.9
				c-3.8-5.3-7.1-11-10.5-16.5C62.6,19.3,58.2,21.8,60,24.5L60,24.5L60,24.5z"/>
		</g>
		<path class="st1" d="M71.5,31.8c-2.5-1.4-4.5-3.5-6.8-5.2c-1.2-0.9-2.5-1.5-4-2c-0.9-0.3-2.5-0.5-2.7-1.6l-1.8,3.1
			c2.3-0.9,4.2-0.4,6.1,1.1s3.4,2.9,5.7,3.7l1.3-4.8c-6-1.5-10.7-6.3-17.2-5.8c-1.3,0.1-2.5,1.1-2.5,2.5c0,1.3,1.1,2.5,2.5,2.5
			c6.1-0.2,12.2-0.1,18.3,0.4c1.5,0.1,2.9,0.3,4.4,0.4c1.2,0.1,2.7,0.1,3.8,0.6s2,1.7,2.9,2.5c1.2,1.1,2.4,2.1,3.7,3.2
			c1,0.9,2.5,1,3.5,0c0.9-0.9,1-2.6,0-3.5c-1.2-1.1-2.4-2.1-3.7-3.2s-2.3-2.2-3.6-3s-2.9-1-4.4-1.2c-1.7-0.2-3.4-0.4-5.1-0.6
			c-6.6-0.6-13.2-0.8-19.7-0.5v5c2.8-0.2,5.3,0.8,7.8,2.1c2.6,1.3,5.2,2.8,8.1,3.5c3.1,0.8,4.3-3.8,1.3-4.8c-2.2-0.8-3.7-2.8-5.7-4
			c-2.6-1.5-5.9-1.9-8.8-0.8c-1.3,0.5-2,1.6-1.8,3.1c0.8,4.1,5.1,4.1,8,5.9c2.9,1.8,4.8,4.3,7.7,5.8S74.4,33.3,71.5,31.8L71.5,31.8
			L71.5,31.8z"/>
		<path d="M60,25.8c5.3-0.4,9,3.9,11.7,7.9s5.1,8.2,9.1,10.9c0.4,0.3,1.2,0.2,1.5-0.2c1-1.1,0.8-2.7-0.2-3.7
			c-0.6-0.6-1.3-0.9-1.9-1.3s-1.2-1.1-1.7-1.7c-1.9-2.5-3-5.4-5-7.8c-4-4.8-10.1-7.7-16.3-7.9c-0.7,0-1.2,0.6-1.2,1.2
			c-0.3,2.8,2.8,3.9,5,3.4c1.3-0.2,2.9-1.2,4.1-0.5c1.1,0.5,1.7,1.8,2.2,2.9c0.7,1.4,2.9,0.2,2.2-1.3c-0.9-1.8-2.1-3.7-4.1-4.2
			c-1.2-0.3-2.4,0-3.5,0.3c-0.9,0.2-3.6,1.1-3.3-0.6l-1.2,1.2c5.3,0.2,10.4,2.5,14,6.5c1.8,1.9,2.9,4.3,4.2,6.5
			c0.7,1.1,1.4,2.2,2.4,3.1c0.3,0.3,2.8,2.2,2.9,2.2l1.5-0.2c-4.4-3-6.6-8-9.7-12S65.2,23,60,23.3C58.4,23.5,58.3,26,60,25.8
			L60,25.8z"/>
		<path d="M52.4,27.9c1.4,0.9,3,1.1,4.6,1.3s3.2,0.7,4.6,1.5c2.9,1.5,4.8,4,6.5,6.8c1.5,2.5,2.8,5.1,4.7,7.3c1,1.1,2.1,2,3.4,2.8
			s3.5,2,3.2,3.8c-0.3,1.6,2.2,2.2,2.4,0.7c0.3-1.8-0.3-3.3-1.5-4.6s-2.9-2-4.2-3c-2.6-2.1-4-5.2-5.7-8c-1.7-3-3.8-5.6-6.7-7.5
			c-1.4-0.9-3-1.6-4.7-2c-1.8-0.4-3.7-0.4-5.3-1.4C52.3,24.9,51.1,27.1,52.4,27.9L52.4,27.9L52.4,27.9z"/>
		<path d="M87.6,39.1c-1.1-0.8-2.1-1.7-3.2-2.5c-0.8-0.6-1.8-0.7-2.2-1.7s-0.7-1.9-1.3-2.7s-1.8-1.3-2.4-2.1L77,31.9
			c1.4,0.3,2.7,0.8,4,1.3s2.5,1.4,3.8,2s2.6,0.6,3.9,0c0.6-0.2,1.2-0.6,1.8-0.8c0.4-0.1,0.7-0.2,1.1-0.2c0.2,0,0.8-0.1,0.9,0
			L92,33.8l0.1,0.1L92,33.3c0-0.2,0.2-0.2,0-0.2c-0.1,0-0.5,0.3-0.6,0.3c-0.3,0.2-0.6,0.3-1,0.5c-0.7,0.4-1.4,0.9-2.1,1.3
			c-1.3,1-2.5,2-3.7,3.2l2.1,1.2c0.4-1.4-0.1-2.8-1-3.9c-0.5-0.5-1.1-1-1.6-1.4c-0.7-0.5-1.2-0.7-2.1-0.8l0.6,0.2
			c0.3,0.3,0.3,0.6,0,1L82,34.8c0.3,0,1.2,1.2,1.6,1.5c0.7,0.6,1.4,1.2,2.1,1.7s1.6,0.8,2.5,0.3c0.8-0.5,1.5-1.2,2.2-1.7
			c0.5-0.4,0.4-1.3,0-1.8c-0.5-0.5-1.2-0.4-1.8,0c-0.3,0.3-1.3,1.3-1.6,1.3l0.6,0.2c-1.3-0.6-2.4-1.8-3.4-2.9s-2.8-1.8-3.7-0.2
			c-0.3,0.6-0.3,1.3,0,1.9c0.2,0.3,0.4,0.5,0.7,0.7s0.6,0.1,0.9,0.2c0.5,0.2,1.2,0.8,1.6,1.3c0.4,0.5,0.7,1,0.5,1.6
			c-0.4,1.2,1.2,2.1,2.1,1.2c1.7-1.8,3.7-3.2,5.8-4.5c1-0.5,2.3-1.1,2.2-2.5c-0.1-1.6-1.9-1.6-3.1-1.5c-1.3,0.1-2.4,0.6-3.6,1.1
			c-1.2,0.5-1.9,0.1-2.9-0.5c-2.2-1.3-4.6-2.3-7.2-2.9c-1-0.2-2.1,0.9-1.4,1.8s1.6,1.5,2.5,2.3c0.8,0.7,0.9,1.8,1.3,2.7
			c0.6,1.1,1.4,1.5,2.4,2c1.2,0.7,2.3,1.7,3.3,2.5c0.5,0.4,1.2,0.5,1.8,0C88.1,40.5,88.2,39.5,87.6,39.1L87.6,39.1L87.6,39.1z"/>
		<path d="M93.9,43.1c5.4-0.5,9.6-4,13.2-7.7s7.2-8.2,12.6-9.5c1.6-0.4,0.9-2.8-0.7-2.4c-1.4,0.3-2.9,0.4-4.3,0.4
			c-1.2,0-2.3-0.3-3.4,0.3c-2,1.2-2.5,4.1-3.8,5.9c-1.5,2.1-4.1,3.6-6.2,5.1c-1.1,0.8-2.3,1.6-3.4,2.4c-0.6,0.4-1.2,0.8-1.8,1.1
			c-0.3,0.2-0.5,0.3-0.8,0.5c-0.2,0.1-0.4,0.2-0.6,0.3c-0.4,0.1-0.4,0.4-0.1,0.9L94,40.9c4.3-0.8,7.6-3.8,10.7-6.6
			c1.9-1.6,3.8-3.3,5.6-4.9c1.6-1.4,3.5-2.9,5.7-2.9l-1.2-0.9c0.9,2.3-3.8,2.8-5.2,3.4c-2.3,1.1-4.1,3-6.1,4.5
			c-2.1,1.7-4.4,3.2-6.8,4.5c-2,1.1-4.3,2.1-5.3,4.3c-0.7,1.5,1.5,2.7,2.2,1.3c1.1-2.3,4.3-3.3,6.4-4.5c2.5-1.5,4.8-3.2,7-5.1
			c1.1-0.9,2.1-1.8,3.4-2.5c1.2-0.6,2.4-0.8,3.7-1.3c2.1-0.8,4.1-2.9,3.2-5.3c-0.2-0.5-0.6-0.9-1.2-0.9c-4.2,0-7.4,3.5-10.4,6.1
			c-3.2,2.8-6.5,6.5-10.7,7.9c-0.8,0.3-1.9,0.3-2.4,0.9c-0.6,0.7-0.5,1.7,0,2.3c1.3,1.8,3.5,0.3,4.9-0.5c2-1.2,3.9-2.5,5.8-3.9
			s3.8-2.6,5.3-4.2s2.2-4,3.6-5.8c0.7-0.9,2.3-0.4,3.4-0.4c1.4,0,2.7-0.2,4.1-0.5l-0.7-2.4c-5.1,1.2-8.9,5-12.4,8.7s-7.4,8-12.8,8.4
			C92.3,40.7,92.3,43.2,93.9,43.1L93.9,43.1L93.9,43.1z"/>
		<path d="M93,38.5c-1.6,0.4-2,2-2.3,3.4c-0.1,0.4-0.2,0.8-0.1,1.3c0.1,0.5,0.4,0.9,0.8,1.1c0.8,0.4,1.6,0.2,2.3-0.2
			c0.3-0.2,0.5-0.3,0.8-0.5c0.1,0,0.1-0.1,0.2-0.1c-0.1,0-0.1,0,0,0c0,0,0.4-0.1,0.2-0.1c0.7-0.1,1.3-0.2,2-0.6
			c0.5-0.2,0.9-0.6,1.3-0.9c0.2-0.1,0.4-0.3,0.6-0.4c0.1-0.1,0.2-0.1,0.4-0.2c-0.3,0.1,0.1,0,0.2-0.1c0.6-0.2,1.1-0.9,0.9-1.5
			s-0.9-1.1-1.5-0.9c-0.9,0.3-1.6,0.8-2.4,1.3c-0.2,0.1-0.3,0.2-0.5,0.3c-0.1,0-0.2,0.1-0.3,0.2c0,0-0.3,0.1-0.1,0.1s-0.2,0-0.2,0.1
			c-0.1,0-0.2,0-0.3,0.1c-0.1,0-0.1,0,0,0c-0.1,0-0.2,0-0.3,0c-0.2,0-0.3,0-0.5,0.1c-0.5,0.1-1,0.4-1.4,0.7
			c-0.1,0.1-0.2,0.1-0.3,0.2c0,0-0.4,0.2-0.1,0.1c-0.1,0-0.1,0-0.1,0c0.1,0,0.3,0,0.4,0.1c0.2,0.1,0.3,0.3,0.3,0.5
			c0,0.3,0,0.3,0.1,0.2c0.2-0.5,0.2-1,0.4-1.5c0,0,0.2-0.3,0.1-0.2c0,0,0.2-0.3,0.1-0.2c-0.1,0.2,0.2-0.2,0.1-0.1
			c-0.1,0-0.1,0,0.1,0c-0.1,0-0.1,0.1,0,0c0.6-0.2,1.1-0.9,0.9-1.5S93.7,38.3,93,38.5L93,38.5L93,38.5z"/>
		<path d="M113.3,25.8c2.2,0.1,4.3,0,6.5-0.5l-0.7-2.4c-1.2,0.3-2.4,0.6-3.7,0.7c-0.7,0.1-1.3,0.1-2,0s-1.3-0.3-2-0.1
			c-1.1,0.3-2.1,1.6-2.8,2.5c-0.4,0.5-0.8,1-0.9,1.6c-0.2,0.7,0.1,1.3,0,2l2.5-0.3c-0.1-0.4-0.3-0.7-0.3-1.1
			c-0.1-0.7-0.5-1.2-1.2-1.2c-0.7,0-1.3,0.6-1.2,1.2c0-0.1,0.1-0.3,0.2-0.4l1.7,1.7c0.7-1.2,1.7-2.1,2.7-2.9
			c0.4-0.3,0.8-0.8,1.3-0.9c0.3-0.1,0.8,0,1.2,0c0.4,0,0.8,0,1.2,0c1.6,0.1,1.6-2.4,0-2.5c-0.9,0-1.9-0.2-2.9,0s-1.6,0.8-2.3,1.4
			c-1.3,1-2.6,2.2-3.4,3.6c-0.6,1.1,0.6,2.3,1.7,1.7c0.7-0.4,1.1-1,1-1.8h-2.5c0.1,0.6,0.2,1.2,0.4,1.8c0.5,1.3,2.3,1.1,2.5-0.3
			c0.1-0.5-0.1-1-0.1-1.5c0,0.2-0.1,0.1,0,0c0.1-0.1,0.1-0.2,0.2-0.2c0.1-0.2,0.3-0.3,0.4-0.5c0.3-0.4,0.7-0.8,1.1-1.1
			c0.1-0.1,0.2-0.2,0.3-0.3c0.1,0-0.1,0-0.1,0c0.3,0,0.6,0.1,0.8,0.1c2.3,0.3,4.7-0.2,6.9-0.8c1.6-0.4,0.9-2.8-0.7-2.4
			c-1.9,0.5-3.8,0.6-5.8,0.5c-0.7,0-1.2,0.6-1.2,1.2C112.1,25.2,112.6,25.7,113.3,25.8L113.3,25.8L113.3,25.8z"/>
		<path d="M87,41.2c1-0.3,1.7-1,2.3-1.7c0.6-0.7,1.3-1.3,2-1.8c0.8-0.6,1.6-1.2,2.4-1.8s1.6-1.3,1.8-2.3c0.2-0.9-0.6-1.9-1.5-1.5
			c-0.2,0.1-0.2,0.1-0.4,0v2.4c0.2,0,0.4-0.1,0.6-0.2c1.2-0.3,1.2-2.1,0-2.4C91,31,87.4,33,85.4,35.5c-0.4,0.5-0.5,1.1-0.1,1.6
			c0.4,0.5,1.1,0.7,1.6,0.3c0.6-0.4,1.3-0.7,2-0.5l-0.3-2.3c-1.6,0.7-3.1,1.5-4.6,2.4l1.9,1.1v-0.1c-0.1,0.2-0.1,0.4-0.2,0.6l0-0.1
			l-0.4,0.5l0.1,0l-0.6,0.2h0.1c0.7,0,1.2-0.5,1.2-1.3c0-0.6-0.6-1.3-1.2-1.2c-0.8,0-1.5,0.6-1.5,1.5c0.1,0.9,1,1.6,1.9,1.1
			c1.5-0.9,3-1.7,4.6-2.4c0.9-0.4,0.7-2.1-0.3-2.3c-1.4-0.2-2.8,0-3.9,0.8l1.5,2c0.8-1,1.8-1.8,2.9-2.4c1.1-0.5,2.4-1,3.6-0.7v-2.4
			c-0.2,0-0.4,0.1-0.6,0.2c-1.2,0.3-1.1,2,0,2.4c0.6,0.2,1.2,0.2,1.7,0l-1.5-1.5c-0.1,0.3-0.1,0.4-0.4,0.6c-0.3,0.3-0.6,0.5-0.9,0.7
			c-0.7,0.5-1.4,1-2,1.5c-0.7,0.5-1.4,1.1-2,1.7c-0.3,0.3-0.5,0.6-0.8,0.9c-0.2,0.2-0.4,0.4-0.7,0.5c-0.6,0.2-1.1,0.9-0.9,1.5
			C85.7,41,86.4,41.4,87,41.2L87,41.2L87,41.2z"/>
		<path d="M89.2,31.3c1.7-0.2,3.4-0.5,5-1.1c0.8-0.3,1.6-0.6,2.3-0.9c0.4-0.2,0.8-0.4,1.2-0.5c0.4-0.2,0.8-0.5,1.2-0.5l-0.2-1.2
			c-0.7,0.2-1.5-0.1-2.3-0.1c-0.8,0.1-1.6,0.4-2.3,0.6c-1.7,0.5-3.3,1-5,1.5c-0.6,0.2-0.6,1.3,0.2,1.2c0.8-0.1,1.7,0,2.5,0
			s1.6-0.2,2.4-0.6s1.4-0.8,2.2-1c0.8-0.3,1.6-0.5,2.4-0.6l-0.3-1.2c-1.8,0.5-3.6,1-5.3,1.6c-1.6,0.6-3.2,1.5-4.9,1.8l0.8,0.8
			c0-0.2,0.1-0.4,0.4-0.4c0.8,0,0.8-1.3,0-1.2S88,30,87.9,30.8c-0.1,0.5,0.3,0.9,0.8,0.8c1.8-0.3,3.3-1.2,4.9-1.8
			c1.7-0.7,3.6-1.1,5.3-1.6c0.8-0.2,0.4-1.4-0.3-1.2c-1.6,0.3-3,0.8-4.4,1.5c-0.7,0.4-1.4,0.6-2.2,0.7s-1.7-0.1-2.5,0l0.2,1.2
			c1.7-0.5,3.3-1,5-1.5c0.7-0.2,1.5-0.6,2.3-0.5s1.5,0.3,2.3,0.1c0.7-0.2,0.6-1.2-0.2-1.2c-0.8,0-1.6,0.5-2.3,0.9
			c-0.8,0.4-1.6,0.7-2.4,1c-1.6,0.6-3.3,1-5.1,1.1C88.5,30.1,88.5,31.4,89.2,31.3L89.2,31.3L89.2,31.3z"/>
		<path d="M62,26.4c0.8,0.6,1.8,0.5,2.8,0.6c0.5,0,1.1,0.2,1.5,0.4c0.2,0.1,0.4,0.3,0.6,0.3c0.2,0.1,0.3,0,0.3-0.1
			c0-0.1-0.2-0.2-0.3-0.2c-0.8-0.6-1.7-1-2.6-1.4c-0.8-0.3-1.8-0.5-2.3,0.4c-0.2,0.4,0,0.8,0.4,0.9c1,0.3,1.4,0.9,2.1,1.5
			s1.6,0.9,2.5,1c0.8,0.1,1.9,0.2,2.6,0.8c0.8,0.7,1.3,1.7,2,2.5c0.5,0.6,1.4-0.3,0.9-0.9c-0.7-0.8-1.3-1.8-2-2.5s-1.8-0.9-2.7-1
			s-1.8-0.4-2.5-1s-1.4-1.3-2.4-1.6l0.4,0.9c0.2-0.3,2.3,1,2.6,1.1c0.4,0.3,0.8,0.8,1.3,0.9c0.6,0,1-0.4,1.1-0.9
			c0.2-1.2-1.3-1.8-2.2-2c-0.6-0.1-1.2-0.2-1.8-0.2c-0.5,0-1.1-0.1-1.5-0.4C61.9,24.8,61.3,25.9,62,26.4L62,26.4L62,26.4z"/>
		<path d="M81,42c0.1,0.3,0.2,0.7,0.1,1c0,0.2-0.1,0.4-0.2,0.5c-0.2,0.1-0.3,0.1-0.4,0c-0.2-0.1-0.4-0.4-0.6-0.6
			c-0.5-0.6-0.9-1.2-1.4-1.8c-0.2-0.3-0.4-0.5-0.6-0.8c-0.1-0.2-0.3-0.5-0.3-0.7l-1.1,0.2c0.4,0.9,0.9,1.7,1.3,2.6
			c0.4,0.8,0.9,1.5,1.5,2.2c0.6,0.6,1.4,1.1,2.3,0.9c0.5-0.1,0.8-0.6,0.7-1.1s-0.2-1-0.3-1.5c-0.1-0.3-0.5-0.5-0.8-0.4
			c-0.3,0.1-0.5,0.4-0.4,0.8c0.1,0.3,0.1,0.6,0.2,0.8c0,0.1,0.1,0.3,0.1,0.4c0,0,0,0.1,0,0.1c0,0.1,0,0,0,0c0-0.1,0-0.1,0,0l0.2-0.2
			c-0.1,0.1,0.1,0,0,0c0,0-0.1,0-0.1,0c-0.1,0-0.2,0-0.3-0.1c-0.2-0.1-0.4-0.2-0.5-0.3c-0.4-0.4-0.7-0.8-1-1.2
			c-0.7-1.1-1.2-2.2-1.8-3.4c-0.2-0.5-1.1-0.4-1.1,0.2c-0.2,1.1,0.5,1.8,1.1,2.6c0.3,0.4,0.7,0.8,1,1.3c0.3,0.4,0.5,0.8,0.9,1.1
			c0.7,0.7,1.7,0.9,2.4,0.2s0.7-1.8,0.4-2.7c-0.1-0.3-0.4-0.5-0.8-0.4C81.1,41.3,80.9,41.7,81,42C81,42,81,42,81,42z"/>
		<path d="M84.1,29.4c-1.1-0.1-2-0.6-2.7-1.4s-1.4-1.5-2.4-2c-0.9-0.4-2-0.8-3-1s-1.9,0.6-1.4,1.7c0.1,0.2,0.3,0.3,0.5,0.3
			c1.3-0.1,2.4-0.1,3.5,0.6c0.9,0.6,1.7,1.4,2.6,1.8l0.3-1.2c-0.7-0.1-1.3-0.9-2-1.2c-0.7-0.4-1.6-0.5-2.4-0.6s-1.6-0.1-2.3-0.4
			c-0.2,0-0.3-0.1-0.4-0.2s-0.3-0.3-0.4-0.3c-0.1-0.1-0.2-0.1-0.2,0.2c0.1,0,0.1,0,0.2,0c0.2,0,0.4,0,0.7,0c1.8,0.1,3.5,0.6,5,1.7
			c0.7,0.5,1.2,1,1.9,1.5c0.3,0.2,0.6,0.4,1,0.5c0.2,0,0.3,0.1,0.5,0.1c0.1,0,0.2,0,0.3,0c0.2,0.1,0.3,0,0.3-0.4
			c-0.7,0.4-0.1,1.5,0.6,1.1c0.7-0.4,0.6-1.3,0-1.7c-0.3-0.2-0.7-0.2-1.1-0.3c-0.4-0.1-0.8-0.4-1.2-0.6c-0.7-0.6-1.3-1.1-2.1-1.6
			s-1.5-0.8-2.4-1.1c-1-0.3-2-0.5-3-0.5c-0.7,0-1.7,0-1.9,0.8c-0.2,0.8,0.6,1.4,1.2,1.7c0.7,0.4,1.5,0.5,2.3,0.6
			c1,0.1,2.1,0.1,3,0.6c0.8,0.5,1.4,1.2,2.4,1.3c0.6,0.1,0.8-0.9,0.3-1.2c-1.1-0.5-1.9-1.4-2.9-2c-1.2-0.7-2.5-0.7-3.8-0.6l0.5,0.3
			c-0.1,0.2,0,0.2,0.1,0.2c0.1,0,0.2,0,0.4,0.1c0.2,0,0.4,0.1,0.6,0.2c0.4,0.1,0.8,0.2,1.2,0.4c0.8,0.3,1.5,0.7,2,1.3s1,1.3,1.8,1.7
			s1.6,0.7,2.4,0.8C84.9,30.7,84.9,29.4,84.1,29.4L84.1,29.4L84.1,29.4z"/>
		<path d="M77.9,29.8c-0.3-0.2-0.5-0.4-0.6-0.7c-0.2-0.3-0.2-0.7-0.4-1c-0.2-0.4-0.6-0.6-0.9-0.8c-0.4-0.2-0.7-0.5-1.1-0.8l-0.6,1.1
			c0.6,0.4,1.1,0.8,1.7,1.3c0.4,0.3,0.9,0.8,0.9,1.3l0.8-0.6c-0.4-0.1-0.9-0.3-1.2-0.7c-0.2-0.2-0.2-0.5-0.3-0.8
			c-0.1-0.3-0.3-0.6-0.5-0.8c-0.2-0.2-0.3-0.4-0.5-0.6c-0.2-0.3-0.3-0.5-0.5-0.8c-0.4-0.5-1-0.7-1.6-1c-0.3-0.1-0.7,0.1-0.8,0.4
			c-0.2,0.7,0.1,1.3,0.6,1.8c0.4,0.4,0.9,0.7,1.3,1.2c0.8,0.9,1.5,1.9,2.4,2.6l-0.2-0.9l0,0.1l0.2-0.2c0,0,0.2,0,0.2,0
			c0,0-0.1-0.1-0.2-0.2c-0.1-0.2-0.3-0.4-0.4-0.5c-0.3-0.3-0.5-0.7-0.8-1c-0.5-0.7-1-1.4-1.5-2.1c-0.2-0.3-0.6-0.4-0.9-0.2
			c-0.4,0.2-0.5,0.6-0.3,1c0.1,0.3,0.5,0.6,0.7,0.9c0.5,0.5,1,1.1,1.6,1.6s1.2,0.7,1.8,0.9c0.3,0.1,0.7,0.2,1.1,0.3
			c0.2,0,0.3,0.1,0.5,0.1c0,0,0.1,0,0.1,0c0.1,0,0,0.2,0-0.1c0,0.3,0.3,0.6,0.6,0.6c0.3,0,0.7-0.3,0.6-0.6c-0.1-0.7-0.6-1-1.2-1.2
			s-1.3-0.4-1.9-0.6c-0.6-0.2-1-0.6-1.4-1.1c-0.2-0.3-0.5-0.5-0.8-0.8c-0.1-0.1-0.2-0.2-0.3-0.4c-0.1-0.1-0.1-0.2-0.2-0.2
			c-0.1-0.1-0.1-0.1,0,0l-0.1,0.3l0,0L73.6,27l0.1,0l-0.9-0.2c0.7,1,1.4,1.9,2.1,2.9c0.3,0.4,0.6,1,1.1,1.3c0.5,0.4,1.1,0.4,1.5-0.1
			c0.2-0.3,0-0.7-0.2-0.9c-0.8-0.6-1.3-1.5-2-2.2c-0.3-0.4-0.7-0.7-1.1-1c-0.3-0.2-0.9-0.5-0.8-1l-0.8,0.4c0.5,0.2,0.9,0.4,1.2,0.9
			c0.2,0.3,0.3,0.5,0.5,0.8c0.2,0.2,0.4,0.4,0.5,0.6c0.3,0.5,0.4,1.1,0.8,1.5s1,0.7,1.6,0.8c0.4,0.1,0.8-0.2,0.8-0.6
			c0-0.9-0.6-1.5-1.1-2c-0.7-0.6-1.3-1.2-2.1-1.6c-0.3-0.2-0.7-0.1-0.9,0.2c-0.2,0.3-0.1,0.7,0.2,0.9c0.4,0.2,0.7,0.5,1.1,0.8
			c0.3,0.2,0.5,0.4,0.6,0.7c0.3,0.8,0.7,1.4,1.4,1.8S78.6,30.2,77.9,29.8L77.9,29.8L77.9,29.8z"/>
	</g>
</g>
</svg>
